<svg xmlns="http://www.w3.org/2000/svg" version="1.1" xmlns:xlink="http://www.w3.org/1999/xlink" xmlns:svgjs="http://svgjs.com/svgjs" width="118" height="135"><svg width="118" height="135" viewBox="0 0 118 135" fill="none" xmlns="http://www.w3.org/2000/svg">
<path d="M80.8433 39.2726C73.8544 41.6792 66.6661 43.281 59.8242 45.8176C37.3503 54.1495 23.9685 70.1377 21.8063 94.2299C20.6636 106.963 21.0976 119.837 20.8014 133.105C14.5005 119.869 6.48633 106.678 2.33005 92.3675C-4.35315 69.3561 3.75092 49.7131 21.3839 33.7927C33.581 22.7803 45.5827 11.5513 58.1268 0C67.5305 11.423 76.1067 23.9853 80.8433 39.2726Z" fill="#03AB96"></path>
<path d="M80.8841 39.6493C90.5818 36.3372 100.275 33.0109 109.984 29.7334C111.023 29.3828 112.157 29.3165 113.13 29.6261C112.087 31.6876 111.036 33.1813 110.252 34.8039C99.4394 57.1772 85.6281 77.6102 67.7811 94.8044C53.2186 108.834 37.2133 121.367 21.8476 134.563C21.5394 134.406 21.2311 134.248 20.8713 133.369C21.0976 119.837 20.6636 106.963 21.8063 94.23C23.9685 70.1377 37.3503 54.1495 59.8242 45.8176C66.6661 43.2811 73.8544 41.6792 80.8841 39.6493Z" fill="#A3E787"></path>
<path d="M22.3126 134.61C37.2133 121.367 53.2186 108.834 67.7811 94.8044C85.6281 77.6102 99.4394 57.1772 110.252 34.8039C111.036 33.1813 112.087 31.6876 113.276 29.9265C114.862 40.905 117.183 52.0811 117.293 63.279C117.489 83.23 111.566 101.329 96.4177 115.303C84.1021 126.663 68.9617 131.886 52.6379 133.526C42.7465 134.521 32.7351 134.32 22.3126 134.61Z" fill="#03CC77"></path>
</svg><style>@media (prefers-color-scheme: light) { :root { filter: none; } }
</style></svg>